<svg xmlns="http://www.w3.org/2000/svg" xmlns:xlink="http://www.w3.org/1999/xlink" version="1.1" x="0px" y="0px" viewBox="0 0 1024 1024" style="enable-background:new 0 0 1024 1024;" xml:space="preserve"><g><g><g stroke="rgb(154, 154, 154)">
<path fill="rgb(154, 154, 154)" stroke-width="50" d="M172.9,258.1c9.2-12.3,22.7-28.2,35.2-41c13.1-13.5,27.1-26.1,41.8-37.9c0.7-0.5,4.6-3.6,2.8-2.2     c2-1.5,3.9-3,5.9-4.5c4-3,8-5.8,12.1-8.7c7.6-5.2,15.3-10.2,23.2-14.9c16.1-9.7,32.7-18.3,49.9-25.8c1.1-0.5,2.3-1,3.5-1.5     c2.6-1.1-3.2,1.3,1.3-0.5c1.9-0.8,3.7-1.5,5.6-2.3c4.7-1.9,9.4-3.6,14.2-5.3c9.1-3.2,18.2-6.2,27.5-8.8     c18.8-5.3,37.9-9.4,57.2-12.2c1-0.1,2.1-0.3,3.1-0.4c-2.3,0.3,0.3,0,0.7-0.1c2.6-0.3,5.2-0.6,7.8-0.9c5.2-0.6,10.4-1,15.7-1.4     c9.8-0.7,19.6-1.1,29.4-1.1c17.6-0.1,35.1,0.8,52.6,2.8c2.3,0.3,4.6,0.5,6.8,0.8c-3-0.4,1.8,0.3,2.8,0.4c4.5,0.7,9,1.4,13.5,2.2     c8.5,1.5,16.9,3.3,25.3,5.3c16.6,4,32.9,8.9,48.9,14.8c3.8,1.4,7.5,2.8,11.2,4.3c1.9,0.7,3.7,1.5,5.5,2.3c2.4,1-3.2-1.4,0.7,0.3     c1.2,0.5,2.4,1.1,3.7,1.6c7.5,3.3,14.9,6.8,22.2,10.5c14.7,7.5,29,15.8,42.7,24.8c6.9,4.6,13.8,9.4,20.4,14.3     c1.8,1.3,3.5,2.6,5.2,4c-2.3-1.8,1.4,1.1,2.1,1.7c3.4,2.7,6.8,5.5,10.2,8.3c12.7,10.7,24.8,22.1,36.2,34.1     c5.7,6,11.2,12.2,16.6,18.5c2.5,3,5,6,7.5,9.1c1.1,1.4,2.2,2.7,3.3,4.1c2.6,3.3-1.1-1.4,0.5,0.6c0.8,1,1.6,2.1,2.4,3.1     c9.9,13.1,19,26.8,27.3,41c8.5,14.4,16.2,29.4,23,44.7c0.9,2,1.8,4.1,2.6,6.1c-1.1-2.7,0.7,1.7,1,2.6c1.7,4.1,3.3,8.3,4.8,12.4     c3,8,5.7,16,8.2,24.1c5,16.2,9,32.6,12,49.3c0.8,4.3,1.5,8.5,2.1,12.8c0.3,1.8,0.5,3.6,0.8,5.4c0.6,4.4-0.2-1.9,0.1,0.8     c0.2,1.4,0.3,2.7,0.5,4.1c1,8.5,1.8,17,2.3,25.6c0.5,8.9,0.8,17.8,0.8,26.7c0,7.8,6.9,15.4,15,15c8.1-0.4,15-6.6,15-15     c-0.1-72.1-17.3-143.5-50.3-207.7c-31.9-62-78.3-115.7-134.2-157.3c-55.8-41.5-121.9-69.9-190.5-81.7     c-77.8-13.3-158.8-7-233.1,20.2c-74,27-140.8,73.1-191.6,133.4c-6.6,7.8-12.9,15.8-19,24c-4.9,6.5-1.1,16.8,5.4,20.5     C160,267.9,168,264.6,172.9,258.1L172.9,258.1z"/>
</g></g><g><g stroke="rgb(154, 154, 154)">
<path fill="rgb(154, 154, 154)" stroke-width="50" d="M330,242.2c-20.6,0-41.3,0-61.9,0c-33,0-65.9,0-98.9,0c-7.7,0-15.3,0-23,0c5,5,10,10,15,15     c0-20.6,0-41.3,0-61.9c0-33,0-65.9,0-98.9c0-7.7,0-15.3,0-23c0-7.8-6.9-15.4-15-15c-8.1,0.4-15,6.6-15,15c0,20.6,0,41.3,0,61.9     c0,33,0,65.9,0,98.9c0,7.7,0,15.3,0,23c0,8.1,6.9,15,15,15c20.6,0,41.3,0,61.9,0c33,0,65.9,0,98.9,0c7.7,0,15.3,0,23,0     c7.8,0,15.4-6.9,15-15C344.6,249.1,338.4,242.2,330,242.2L330,242.2z"/>
</g></g><g><g stroke="rgb(154, 154, 154)">
<path fill="rgb(154, 154, 154)" stroke-width="50" d="M851.1,765.9c-9.2,12.3-22.7,28.2-35.2,41c-13.1,13.5-27.1,26.1-41.8,37.9c-0.7,0.5-4.6,3.6-2.8,2.2     c-2,1.5-3.9,3-5.9,4.5c-4,3-8,5.8-12.1,8.7c-7.6,5.2-15.3,10.2-23.2,14.9c-16.1,9.7-32.7,18.3-49.9,25.8c-1.1,0.5-2.3,1-3.5,1.5     c-2.6,1.1,3.2-1.3-1.3,0.5c-1.9,0.8-3.7,1.5-5.6,2.3c-4.7,1.9-9.4,3.6-14.2,5.3c-9.1,3.2-18.2,6.2-27.5,8.8     c-18.8,5.3-37.9,9.4-57.2,12.2c-1,0.1-2.1,0.3-3.1,0.4c2.3-0.3-0.3,0-0.7,0.1c-2.6,0.3-5.2,0.6-7.8,0.9c-5.2,0.6-10.4,1-15.7,1.4     c-9.8,0.7-19.6,1.1-29.4,1.1c-17.6,0.1-35.1-0.8-52.6-2.8c-2.3-0.3-4.6-0.5-6.8-0.8c3,0.4-1.8-0.3-2.8-0.4     c-4.5-0.7-9-1.4-13.5-2.2c-8.5-1.5-16.9-3.3-25.3-5.3c-16.6-4-32.9-8.9-48.9-14.8c-3.8-1.4-7.5-2.8-11.2-4.3     c-1.9-0.7-3.7-1.5-5.5-2.3c-2.4-1,3.2,1.4-0.7-0.3c-1.2-0.5-2.4-1.1-3.7-1.6c-7.5-3.3-14.9-6.8-22.2-10.5     c-14.7-7.5-29-15.8-42.7-24.8c-6.9-4.6-13.8-9.4-20.4-14.3c-1.8-1.3-3.5-2.6-5.2-4c2.3,1.8-1.4-1.1-2.1-1.7     c-3.4-2.7-6.8-5.5-10.2-8.3c-12.7-10.7-24.8-22.1-36.2-34.1c-5.7-6-11.2-12.2-16.6-18.5c-2.5-3-5-6-7.5-9.1     c-1.1-1.4-2.2-2.7-3.3-4.1c-2.6-3.3,1.1,1.4-0.5-0.6c-0.8-1-1.6-2.1-2.4-3.1c-9.9-13.1-19-26.8-27.3-41     c-8.5-14.4-16.2-29.4-23-44.7c-0.9-2-1.8-4.1-2.6-6.1c1.1,2.7-0.7-1.7-1-2.6c-1.7-4.1-3.3-8.3-4.8-12.4c-3-8-5.7-16-8.2-24.1     c-5-16.2-9-32.6-12-49.3c-0.8-4.3-1.5-8.5-2.1-12.8c-0.3-1.8-0.5-3.6-0.8-5.4c-0.6-4.4,0.2,1.9-0.1-0.8c-0.2-1.4-0.3-2.7-0.5-4.1     c-1-8.5-1.8-17-2.3-25.6c-0.5-8.9-0.8-17.8-0.8-26.7c0-7.8-6.9-15.4-15-15c-8.1,0.4-15,6.6-15,15c0.1,72.1,17.3,143.5,50.3,207.7     c31.9,62,78.3,115.7,134.2,157.3c55.8,41.5,121.9,69.9,190.5,81.7c77.8,13.3,158.8,7,233.1-20.2c74-27,140.8-73.1,191.6-133.4     c6.6-7.8,12.9-15.8,19-24c4.9-6.5,1.1-16.8-5.4-20.5C864,756.1,856,759.4,851.1,765.9L851.1,765.9z"/>
</g></g><g><g stroke="rgb(154, 154, 154)">
<path fill="rgb(154, 154, 154)" stroke-width="50" d="M694,781.8c20.6,0,41.3,0,61.9,0c33,0,65.9,0,98.9,0c7.7,0,15.3,0,23,0c-5-5-10-10-15-15     c0,20.6,0,41.3,0,61.9c0,33,0,65.9,0,98.9c0,7.7,0,15.3,0,23c0,7.8,6.9,15.4,15,15c8.1-0.4,15-6.6,15-15c0-20.6,0-41.3,0-61.9     c0-33,0-65.9,0-98.9c0-7.7,0-15.3,0-23c0-8.1-6.9-15-15-15c-20.6,0-41.3,0-61.9,0c-33,0-65.9,0-98.9,0c-7.7,0-15.3,0-23,0     c-7.8,0-15.4,6.9-15,15C679.4,774.9,685.6,781.8,694,781.8L694,781.8z"/></g></g></g></svg>