<?xml version="1.0" encoding="utf-8"?>
<svg viewBox="31.171 11.609 481.824 522.04" xmlns="http://www.w3.org/2000/svg">
  <path class="fil0" d="M 272.098 11.609 C 313.436 11.609 351.333 28.608 380.152 57.371 C 409.282 85.831 426.948 123.671 426.948 166.459 C 426.948 224.698 394.043 274.96 348.698 300.548 L 333.033 309.532 L 345.923 313.702 L 350.23 315.098 C 398.305 330.472 435.711 357.836 463.279 394.247 C 491.079 430.481 507.721 474.475 512.724 523.443 C 513.155 525.491 513.058 526.59 512.527 527.701 C 512.063 528.812 511.267 529.564 509.817 530.632 L 509.715 530.706 L 509.663 530.756 L 509.637 530.781 C 507.285 533.123 504.464 533.649 499.878 533.649 C 495.295 533.649 491.73 532.777 488.598 530.243 C 485.15 528.016 483.6 525.942 483.748 521.603 L 483.735 521.399 L 483.726 521.325 C 477.555 473.879 453.07 427.337 416.574 393.735 C 379.867 360.473 329.108 338.099 272.098 338.099 C 215.088 338.099 164.308 360.49 127.603 393.752 C 91.106 427.357 66.613 474.188 60.443 521.627 L 60.417 521.815 L 60.417 521.883 L 60.417 522.014 C 60.637 526.244 58.891 528.081 55.366 530.41 C 52.252 532.939 48.918 533.649 44.318 533.649 C 39.762 533.649 36.793 533.008 34.41 530.657 L 34.327 530.579 L 34.275 530.541 L 34.23 530.508 C 32.794 529.474 31.983 528.681 31.533 527.602 C 31.077 526.51 31.037 525.292 31.497 523.248 L 31.509 523.194 L 31.515 523.134 C 36.368 474.175 52.907 430.461 80.67 394.228 C 108.2 357.82 145.602 330.466 193.679 315.092 L 210.868 309.532 L 199.115 302.794 L 195.179 300.536 C 149.838 274.951 116.95 224.698 116.95 166.459 C 116.95 123.671 134.637 85.81 163.802 57.351 C 192.655 28.587 230.607 11.609 272.098 11.609 Z M 352.601 82.23 C 332.24 61.423 302.847 47.654 272.098 47.654 C 241.349 47.654 211.99 61.389 191.627 82.196 C 171.629 103.284 158.25 133.809 158.25 166.459 C 158.25 199.109 171.595 229.601 191.594 250.688 C 211.955 271.495 241.348 285.264 272.098 285.264 C 302.846 285.264 332.205 271.529 352.568 250.722 C 372.566 229.634 385.945 199.109 385.945 166.459 C 385.945 133.809 372.6 103.317 352.601 82.23 Z" style="paint-order: fill; fill: rgb(154, 154, 154);"/>
</svg>