<svg xmlns="http://www.w3.org/2000/svg" viewBox="0 0 32 32" x="0px" y="0px">
<g data-name="Layer 2" stroke="rgb(154, 154, 154)">
<path fill="rgb(154, 154, 154)" stroke-width="0.2" d="M4.834,29.665H25.007a2.838,2.838,0,0,0,2.834-2.834V16.157a1,1,0,0,0-2,0V26.831a.835.835,0,0,1-.834.834H4.834A.835.835,0,0,1,4,26.831V7.651a.835.835,0,0,1,.834-.834H16a1,1,0,0,0,0-2H4.834A2.837,2.837,0,0,0,2,7.651v19.18A2.837,2.837,0,0,0,4.834,29.665Z"/>
<path fill="rgb(154, 154, 154)" stroke-width="0.2" d="M8.582,19.343l-.67,3.348a1.387,1.387,0,0,0,1.359,1.661,1.411,1.411,0,0,0,.273-.027l3.351-.67a3.319,3.319,0,0,0,1.7-.908L28.845,8.494a3.608,3.608,0,0,0-5.1-5.1L9.49,17.645A3.3,3.3,0,0,0,8.582,19.343Zm1.961.391a1.324,1.324,0,0,1,.361-.675L25.157,4.806A1.608,1.608,0,0,1,27.431,7.08L13.178,21.332a1.321,1.321,0,0,1-.676.362l-2.448.49Z"/></g>
</svg>