<?xml version="1.0" encoding="utf-8"?>
<svg version="1.1" x="0px" y="0px" viewBox="0 0 64 64" enable-background="new 0 0 64 64" xmlns="http://www.w3.org/2000/svg">
  <path fill="rgb(154, 154, 154)" d="M 58.947 15.053 C 57.624 13.73 56.001 12.956 54 13 L 10 13 C 7.999 12.956 6.376 13.73 5.053 15.053 C 3.73 16.376 2.956 17.999 3 20 L 3 44 C 2.956 46.001 3.73 47.624 5.053 48.947 C 6.376 50.27 7.999 51.044 10 51 L 54 51 C 56.001 51.044 57.624 50.27 58.947 48.947 C 60.27 47.624 61.044 46.001 61 44 L 61 20 C 61.044 17.999 60.27 16.376 58.947 15.053 Z M 54 15 C 54.24 15.01 54.422 15.04 54.506 15.046 L 57.316 15.255 L 54.968 16.866 C 49.941 20.312 38.486 28.183 32.577 32.362 L 32 32.771 L 31.423 32.362 C 25.514 28.183 14.059 20.312 9.032 16.866 L 6.684 15.255 L 9.494 15.046 C 9.578 15.04 9.76 15.01 10 15 Z M 59 44 C 58.956 45.308 58.384 46.684 57.534 47.534 C 56.684 48.384 55.308 48.956 54 49 L 10 49 C 8.692 48.956 7.316 48.384 6.466 47.534 C 5.616 46.684 5.044 45.308 5 44 L 5 20 C 5.011 19.402 5.144 18.759 5.329 18.253 L 5.767 17.052 L 6.83 17.78 C 11.342 20.872 25.608 30.663 31.419 34.814 C 31.621 34.991 31.738 35 32 35 C 32.262 35 32.379 34.991 32.582 34.813 C 38.392 30.663 52.658 20.872 57.17 17.78 L 58.233 17.052 L 58.671 18.253 C 58.856 18.759 58.989 19.402 59 20 Z" stroke="rgb(154, 154, 154)" style="stroke-width: 2px;"/>
</svg>