<?xml version="1.0" encoding="utf-8"?>
<svg viewBox="0 0 54 54" style="enable-background:new 0 0 54 54;" xmlns="http://www.w3.org/2000/svg">
  <g transform="matrix(1, 0, 0, 1, -2.779837, -0.488954)">
    <g>
      <path d="M 9.7 52 L 44.3 52 C 45.4 52 46.3 51.1 46.3 50 L 46.3 20.6 C 46.3 20.1 46.1 19.6 45.7 19.2 L 29.1 2.6 C 28.8 2.2 28.3 2 27.7 2 L 9.7 2 C 8.6 2 7.7 2.9 7.7 4 L 7.7 50 C 7.7 51.1 8.6 52 9.7 52 Z M 11.7 6 L 26.9 6 L 42.3 21.4 L 42.3 48 L 11.7 48 L 11.7 6 Z M 36.3 30 C 36.3 31.1 35.4 32 34.3 32 L 29 32 L 29 37.3 C 29 38.4 28.1 39.3 27 39.3 C 25.9 39.3 25 38.4 25 37.3 L 25 32 L 19.7 32 C 18.6 32 17.7 31.1 17.7 30 C 17.7 28.9 18.6 28 19.7 28 L 25 28 L 25 22.7 C 25 21.6 25.9 20.7 27 20.7 C 28.1 20.7 29 21.6 29 22.7 L 29 28 L 34.3 28 C 35.4 28 36.3 28.9 36.3 30 Z" style="paint-order: fill; fill: rgb(154, 154, 154); stroke-width: 0px;"/>
    </g>
  </g>
</svg>