<!DOCTYPE svg PUBLIC "-//W3C//DTD SVG 1.1//EN" "http://www.w3.org/Graphics/SVG/1.1/DTD/svg11.dtd">
<!-- Uploaded to: SVG Repo, www.svgrepo.com, Transformed by: SVG Repo Mixer Tools -->
<svg height="800px" width="800px" version="1.1" id="_x32_" xmlns="http://www.w3.org/2000/svg" xmlns:xlink="http://www.w3.org/1999/xlink" viewBox="-10.24 -10.24 532.48 532.48" xml:space="preserve" fill="#939393" stroke="#939393" stroke-width="6.144">
<g id="SVGRepo_bgCarrier" stroke-width="0"/>
<g id="SVGRepo_tracerCarrier" stroke-linecap="round" stroke-linejoin="round"/>
<g id="SVGRepo_iconCarrier"> <style type="text/css"> .st0{fill:#939393;} </style> <g> <path class="st0" d="M411.626,0H222.754c-13.552,0-26.56,5.39-36.148,14.969L68.794,132.788 c-9.594,9.587-14.976,22.596-14.976,36.156v296.5c0,25.67,20.892,46.556,46.564,46.556h311.243 c25.664,0,46.556-20.886,46.556-46.556V46.542C458.182,20.878,437.289,0,411.626,0z M206.248,32.349v104.652 c0,11.313-4.402,15.722-15.715,15.722H85.881L206.248,32.349z M431.998,465.444c0,11.237-9.142,20.372-20.372,20.372H100.382 c-11.245,0-20.38-9.135-20.38-20.372V175.998h124.55c13.77,0,24.978-11.207,24.978-24.985V26.184h182.096 c11.23,0,20.372,9.127,20.372,20.358V465.444z"/> </g> </g>
</svg>