<svg width="255" height="48" viewBox="0 0 255 48" fill="none" xmlns="http://www.w3.org/2000/svg">
<path d="M55.2614 39L46.6818 9.90909H55.4886L59.4659 27.8068H59.6932L64.4091 9.90909H71.3409L76.0568 27.8636H76.2841L80.2614 9.90909H89.0682L80.4886 39H72.9318L67.9886 22.75H67.7614L62.8182 39H55.2614ZM99.5795 26.7273V39H91.7386V9.90909H99.2955V21.3295H99.5227C100.015 19.9375 100.834 18.8532 101.98 18.0767C103.126 17.2907 104.504 16.8977 106.114 16.8977C107.657 16.8977 108.997 17.2481 110.134 17.9489C111.279 18.6496 112.165 19.6155 112.79 20.8466C113.424 22.0777 113.737 23.4886 113.727 25.0795V39H105.886V26.7273C105.896 25.6477 105.626 24.8002 105.077 24.1847C104.537 23.5691 103.765 23.2614 102.761 23.2614C102.127 23.2614 101.568 23.4034 101.085 23.6875C100.612 23.9621 100.242 24.3598 99.9773 24.8807C99.7216 25.392 99.589 26.0076 99.5795 26.7273ZM123.678 39.3409C122.286 39.3409 121.054 39.1136 119.984 38.6591C118.924 38.1951 118.09 37.4943 117.484 36.5568C116.878 35.6193 116.575 34.4261 116.575 32.9773C116.575 31.7841 116.779 30.7661 117.186 29.9233C117.593 29.071 118.161 28.375 118.891 27.8352C119.62 27.2955 120.467 26.8835 121.433 26.5994C122.409 26.3153 123.46 26.1307 124.587 26.0455C125.808 25.9508 126.788 25.8371 127.527 25.7045C128.275 25.5625 128.815 25.3684 129.146 25.1222C129.478 24.8665 129.643 24.5303 129.643 24.1136V24.0568C129.643 23.4886 129.426 23.053 128.99 22.75C128.554 22.447 127.996 22.2955 127.314 22.2955C126.566 22.2955 125.955 22.4612 125.482 22.7926C125.018 23.1146 124.738 23.6117 124.643 24.2841H117.428C117.522 22.9583 117.944 21.7367 118.692 20.6193C119.449 19.4924 120.553 18.5928 122.001 17.9205C123.45 17.2386 125.259 16.8977 127.428 16.8977C128.99 16.8977 130.392 17.0824 131.632 17.4517C132.873 17.8116 133.929 18.3182 134.8 18.9716C135.671 19.6155 136.334 20.3731 136.788 21.2443C137.252 22.1061 137.484 23.0436 137.484 24.0568V39H130.155V35.9318H129.984C129.549 36.7462 129.018 37.4044 128.393 37.9062C127.778 38.4081 127.072 38.7727 126.277 39C125.491 39.2273 124.625 39.3409 123.678 39.3409ZM126.234 34.3977C126.831 34.3977 127.39 34.2746 127.911 34.0284C128.441 33.7822 128.872 33.4271 129.203 32.9631C129.535 32.4991 129.7 31.9356 129.7 31.2727V29.4545C129.492 29.5398 129.269 29.6203 129.033 29.696C128.805 29.7718 128.559 29.8428 128.294 29.9091C128.038 29.9754 127.764 30.0369 127.47 30.0938C127.186 30.1506 126.888 30.2027 126.575 30.25C125.969 30.3447 125.472 30.5009 125.084 30.7188C124.705 30.9271 124.421 31.1875 124.232 31.5C124.052 31.803 123.962 32.1439 123.962 32.5227C123.962 33.1288 124.175 33.5928 124.601 33.9148C125.027 34.2367 125.571 34.3977 126.234 34.3977ZM154.242 17.1818V22.8636H139.867V17.1818H154.242ZM142.651 11.9545H150.492V31.983C150.492 32.286 150.544 32.5417 150.648 32.75C150.753 32.9489 150.914 33.1004 151.131 33.2045C151.349 33.2992 151.629 33.3466 151.969 33.3466C152.206 33.3466 152.481 33.3182 152.793 33.2614C153.115 33.2045 153.352 33.1572 153.504 33.1193L154.64 38.6307C154.29 38.7348 153.788 38.8627 153.134 39.0142C152.49 39.1657 151.723 39.2652 150.833 39.3125C149.034 39.4072 147.523 39.2225 146.302 38.7585C145.08 38.285 144.162 37.5417 143.546 36.5284C142.931 35.5152 142.632 34.2462 142.651 32.7216V11.9545ZM155.165 16.2727V9.90909H180.45V16.2727H171.7V39H163.915V16.2727H155.165ZM190.883 39.3977C188.515 39.3977 186.489 38.929 184.803 37.9915C183.118 37.0445 181.825 35.7282 180.925 34.0426C180.026 32.3475 179.576 30.3826 179.576 28.1477C179.576 25.9129 180.026 23.9527 180.925 22.267C181.825 20.572 183.118 19.2557 184.803 18.3182C186.489 17.3712 188.515 16.8977 190.883 16.8977C193.25 16.8977 195.277 17.3712 196.962 18.3182C198.648 19.2557 199.941 20.572 200.84 22.267C201.74 23.9527 202.19 25.9129 202.19 28.1477C202.19 30.3826 201.74 32.3475 200.84 34.0426C199.941 35.7282 198.648 37.0445 196.962 37.9915C195.277 38.929 193.25 39.3977 190.883 39.3977ZM190.94 33.6023C191.603 33.6023 192.175 33.3797 192.658 32.9347C193.141 32.4896 193.515 31.8551 193.781 31.0312C194.046 30.2074 194.178 29.2273 194.178 28.0909C194.178 26.9451 194.046 25.965 193.781 25.1506C193.515 24.3267 193.141 23.6922 192.658 23.2472C192.175 22.8021 191.603 22.5795 190.94 22.5795C190.239 22.5795 189.638 22.8021 189.136 23.2472C188.634 23.6922 188.25 24.3267 187.985 25.1506C187.72 25.965 187.587 26.9451 187.587 28.0909C187.587 29.2273 187.72 30.2074 187.985 31.0312C188.25 31.8551 188.634 32.4896 189.136 32.9347C189.638 33.3797 190.239 33.6023 190.94 33.6023ZM213.269 39.2841C211.716 39.2841 210.286 38.8769 208.979 38.0625C207.682 37.2481 206.64 36.0123 205.854 34.3551C205.078 32.6979 204.69 30.6098 204.69 28.0909C204.69 25.4583 205.097 23.3182 205.911 21.6705C206.735 20.0227 207.796 18.8153 209.093 18.0483C210.4 17.2812 211.773 16.8977 213.212 16.8977C214.292 16.8977 215.239 17.0871 216.053 17.4659C216.868 17.8352 217.549 18.3324 218.099 18.9574C218.648 19.5729 219.065 20.25 219.349 20.9886H219.462V9.90909H227.303V39H219.519V35.4205H219.349C219.046 36.1591 218.61 36.822 218.042 37.4091C217.483 37.9867 216.801 38.446 215.996 38.7869C215.201 39.1184 214.292 39.2841 213.269 39.2841ZM216.167 33.2614C216.887 33.2614 217.502 33.053 218.013 32.6364C218.534 32.2102 218.932 31.6136 219.207 30.8466C219.491 30.0701 219.633 29.1515 219.633 28.0909C219.633 27.0114 219.491 26.0881 219.207 25.321C218.932 24.5445 218.534 23.9527 218.013 23.5455C217.502 23.1288 216.887 22.9205 216.167 22.9205C215.447 22.9205 214.832 23.1288 214.32 23.5455C213.818 23.9527 213.43 24.5445 213.156 25.321C212.89 26.0881 212.758 27.0114 212.758 28.0909C212.758 29.1705 212.89 30.0985 213.156 30.875C213.43 31.642 213.818 32.2339 214.32 32.6506C214.832 33.0578 215.447 33.2614 216.167 33.2614ZM241.664 39.3977C239.297 39.3977 237.27 38.929 235.585 37.9915C233.899 37.0445 232.606 35.7282 231.707 34.0426C230.807 32.3475 230.357 30.3826 230.357 28.1477C230.357 25.9129 230.807 23.9527 231.707 22.267C232.606 20.572 233.899 19.2557 235.585 18.3182C237.27 17.3712 239.297 16.8977 241.664 16.8977C244.031 16.8977 246.058 17.3712 247.744 18.3182C249.429 19.2557 250.722 20.572 251.621 22.267C252.521 23.9527 252.971 25.9129 252.971 28.1477C252.971 30.3826 252.521 32.3475 251.621 34.0426C250.722 35.7282 249.429 37.0445 247.744 37.9915C246.058 38.929 244.031 39.3977 241.664 39.3977ZM241.721 33.6023C242.384 33.6023 242.957 33.3797 243.44 32.9347C243.923 32.4896 244.297 31.8551 244.562 31.0312C244.827 30.2074 244.96 29.2273 244.96 28.0909C244.96 26.9451 244.827 25.965 244.562 25.1506C244.297 24.3267 243.923 23.6922 243.44 23.2472C242.957 22.8021 242.384 22.5795 241.721 22.5795C241.02 22.5795 240.419 22.8021 239.917 23.2472C239.415 23.6922 239.031 24.3267 238.766 25.1506C238.501 25.965 238.369 26.9451 238.369 28.0909C238.369 29.2273 238.501 30.2074 238.766 31.0312C239.031 31.8551 239.415 32.4896 239.917 32.9347C240.419 33.3797 241.02 33.6023 241.721 33.6023Z" fill="black"/>
<g clip-path="url(#clip0_4_5)">
<path fill-rule="evenodd" clip-rule="evenodd" d="M19.5 11.29C19.5 8.9207 17.5793 7 15.21 7H4.29C1.9207 7 0 8.9207 0 11.29V22.3503C0 24.7196 1.9207 26.6402 4.29 26.6402H15.21C17.5793 26.6402 19.5 28.561 19.5 30.9302V41.71C19.5 44.0793 21.4207 46 23.79 46H34.71C37.0793 46 39 44.0793 39 41.71V30.6496C39 28.2803 37.0793 26.3597 34.71 26.3597H23.79C21.4207 26.3597 19.5 24.439 19.5 22.0697V11.29Z" fill="black"/>
</g>
<defs>
<clipPath id="clip0_4_5">
<rect width="39" height="39" fill="white" transform="translate(0 7)"/>
</clipPath>
</defs>
</svg>
