<?xml version="1.0" encoding="utf-8"?>
<svg viewBox="0 0 496 488.4" fill="#000000" xmlns="http://www.w3.org/2000/svg">
  <g transform="matrix(0.966369, 0, 0, 0.966369, 12.164383, 9.124969)" style="">
    <g stroke="rgb(154, 154, 154)">
      <path fill="rgb(154, 154, 154)" stroke-width="15" d="M0,203.25c0,112.1,91.2,203.2,203.2,203.2c51.6,0,98.8-19.4,134.7-51.2l129.5,129.5c2.4,2.4,5.5,3.6,8.7,3.6 s6.3-1.2,8.7-3.6c4.8-4.8,4.8-12.5,0-17.3l-129.6-129.5c31.8-35.9,51.2-83,51.2-134.7c0-112.1-91.2-203.2-203.2-203.2 S0,91.15,0,203.25z M381.9,203.25c0,98.5-80.2,178.7-178.7,178.7s-178.7-80.2-178.7-178.7s80.2-178.7,178.7-178.7 S381.9,104.65,381.9,203.25z"/>
    </g>
  </g>
</svg>