<svg version="1.2" xmlns="http://www.w3.org/2000/svg" viewBox="0 0 24 24" width="24" height="24"><style>.a{fill:none}.b{fill:#9b9b9b;stroke:#9b9b9b;stroke-miterlimit:10;stroke-width:.5}</style><path class="a" d="m24 0v24h-24v-24z"/><path class="b" d="m10.3 1.7c0-0.9 0.8-1.7 1.7-1.7 0.9 0 1.7 0.8 1.7 1.7 0 1-0.8 1.7-1.7 1.7-0.9 0-1.7-0.7-1.7-1.7z"/><path class="b" d="m10.3 12c0-0.9 0.8-1.7 1.7-1.7 0.9 0 1.7 0.8 1.7 1.7 0 0.9-0.8 1.7-1.7 1.7-0.9 0-1.7-0.8-1.7-1.7z"/><path class="b" d="m10.3 22.3c0-1 0.8-1.7 1.7-1.7 0.9 0 1.7 0.7 1.7 1.7 0 0.9-0.8 1.7-1.7 1.7-0.9 0-1.7-0.8-1.7-1.7z"/></svg>